<svg xmlns="http://www.w3.org/2000/svg" viewBox="0 11.5 76.9000015258789 36.04999923706055" data-asc="0.94">
    <g fill="#000000">
        <g fill="#000000" transform="translate(0, 0)">
            <path
                d="M1.55 39.75Q2.20 40.20 3.85 40.83Q5.50 41.45 7.75 41.45Q9.70 41.45 10.95 40.77Q12.20 40.10 12.88 38.75Q13.55 37.40 13.78 35.25Q14.00 33.10 14.00 30.10L14.00 11.50L20.90 11.50L20.90 29.55Q20.90 33.55 20.45 36.85Q20 40.15 18.70 42.55Q17.40 44.95 14.78 46.25Q12.15 47.55 7.80 47.55Q5.40 47.55 3.50 47Q1.60 46.45 0 45.35L1.55 39.75ZM40.05 11.60L46.45 11.60L50.50 23.35L54.60 11.60L60.95 11.60L54.85 27.75L59.35 39.05L69.40 11.50L76.90 11.50L62.70 47L56.75 47L50.50 32.10L44.30 47L38.35 47L24.20 11.50L31.60 11.50L41.70 39.05L46.10 27.75L40.05 11.60Z" />
        </g>
    </g>
</svg>