<svg id="Layer_1" data-name="Layer 1" xmlns="http://www.w3.org/2000/svg" viewBox="0 0 190 127.37">
  <defs>
    <style>
      .cls-2 {
        fill: #b2a268;
      }
    </style>
  </defs>
  <path class="cls-2"
    d="M138,98.46h0a2.28,2.28,0,1,0,2.24,2.27A2.26,2.26,0,0,0,137.94,98.46Zm0,4.2a1.93,1.93,0,0,1,0-3.85h0a1.93,1.93,0,0,1,0,3.85Z" />
  <path class="cls-2"
    d="M138.35,100.81v0a.63.63,0,0,0,.5-.62.6.6,0,0,0-.23-.52,1.38,1.38,0,0,0-.79-.19,4.63,4.63,0,0,0-.72.06v2.53h.41V101h.28a.47.47,0,0,1,.54.45,1.85,1.85,0,0,0,.17.64h.43a2.07,2.07,0,0,1-.16-.62C138.73,101.05,138.57,100.85,138.35,100.81Zm-.54-.16h-.29v-.86l.29,0c.45,0,.61.22.61.45S138.14,100.65,137.81,100.65Z" />
  <path class="cls-2" d="M66,24.36h0Z" />
  <path class="cls-2"
    d="M76.53,49.21V69H87.17l1.12-6h4.78C91.32,72.16,82.3,78.43,70.86,78.43c-.78,0-1.57,0-2.36-.09A31.4,31.4,0,0,1,52.11,72.6,16.73,16.73,0,0,1,45,58.89a20.25,20.25,0,0,1,7-15.2A25.88,25.88,0,0,1,68.06,37.4c.38,0,.77,0,1.16,0a33.31,33.31,0,0,1,20.51,7.51c.29.24.36.29.43.34a4.36,4.36,0,0,1,.41.33l.16.14h12.21V24.36H90.57v6.11A47.15,47.15,0,0,0,66,23.77h-.17a42.89,42.89,0,0,0-30.24,12.7C29.19,43,25.7,51,25.8,59c.12,8.6,4.26,16.61,11.67,22.55a42.72,42.72,0,0,0,26.36,9c1.19,0,2.4,0,3.59-.14,9.57-.78,18-3,24-6.17l0,2.64h13.14V63.1h4.54V90.64h-6.85V103h30.57V90.64H126V63.09h15.48l1.08,6h10.68V49.21ZM66,24.36h0Z" />
</svg>